<svg xmlns="http://www.w3.org/2000/svg" width="1086" height="797.68" viewBox="0 0 1086 797.68"><defs><style>.a{fill:#dbdbdb;}.b{fill:#2f2e41;}.c{fill:#ffb9b9;}.d{opacity:0.1;}.e{fill:#ae72e6;}.f,.i{opacity:0.2;}.g{fill:#8a2be2;}.h{fill:#3f4545;}.i,.k{fill:none;stroke-miterlimit:10;stroke-width:2px;}.i{stroke:#000;}.j{fill:#deeeed;}.k{stroke:#3f3d56;}.l{fill:#3f3d56;}.m{fill:#9f616a;}.n{fill:#d0cde1;}.o{fill:#57b894;}</style></defs><g transform="translate(-13)"><circle class="a" cx="373" cy="373" r="373" transform="translate(98 0)"/><ellipse class="a" cx="141.5" cy="23.68" rx="141.5" ry="23.68" transform="translate(13 750.32)"/><ellipse class="a" cx="229" cy="36.64" rx="229" ry="36.64" transform="translate(641 700.329)"/><path class="b" d="M869.62,435.945s1.95,6.5-9.1,12.348-14.3,27.945-1.3,34.443,16.9,14.947,10.4,20.8-18.2,21.446-2.6,25.345,17.547,11.7,13,14.947,10.4-5.849,10.4-5.849,2.6,15.6,16.247,11.7,51.99-77.985,32.494-88.383S869.62,435.945,869.62,435.945Z" transform="translate(-50.5 -51.16)"/><path class="c" d="M893.175,498.7s6.741,23.594-5.056,25.279A46.053,46.053,0,0,0,867.9,532.4l21.909,28.65h40.447l25.279-25.279s-33.706-25.279-26.965-40.447S893.175,498.7,893.175,498.7Z" transform="translate(-50.5 -51.16)"/><path class="d" d="M893.175,498.7s6.741,23.594-5.056,25.279A46.053,46.053,0,0,0,867.9,532.4l21.909,28.65h40.447l25.279-25.279s-33.706-25.279-26.965-40.447S893.175,498.7,893.175,498.7Z" transform="translate(-50.5 -51.16)"/><path class="c" d="M852.787,740.779l38.762,13.482,26.964,1.685-1.685-23.594L861.213,715.9Z"/><path class="e" d="M953,786.883s0,23.594,3.371,23.594,48.874-5.056,62.356,0,33.706-13.482,23.594-23.594-26.606-25.279-36.9-21.909S953,776.771,953,776.771Z" transform="translate(-50.5 -51.16)"/><path class="e" d="M829.134,764.974s-20.224,40.447-6.741,43.818,28.65-1.685,30.335-3.371,25.279-8.426,28.65-5.056,3.371-13.482,3.371-13.482Z" transform="translate(-50.5 -51.16)"/><path class="b" d="M845.987,709.359s-32.021,43.818-8.427,55.615,136.509,11.8,144.935,0,11.8-48.874,0-52.244S845.987,709.359,845.987,709.359Z" transform="translate(-50.5 -51.16)"/><path class="f" d="M845.987,709.359s-32.021,43.818-8.427,55.615,136.509,11.8,144.935,0,11.8-48.874,0-52.244S845.987,709.359,845.987,709.359Z" transform="translate(-50.5 -51.16)"/><circle class="c" cx="38.762" cy="38.762" r="38.762" transform="translate(817.396 381.81)"/><path class="g" d="M845.987,532.4l33.706-6.741s8.427,26.965,35.391,21.909,33.706-21.909,33.706-21.909,20.224,8.427,21.909,8.427,23.594,8.426,23.594,13.482-25.279,55.615-25.279,55.615l3.371,91.006L847.672,690.82,856.1,601.5Z" transform="translate(-50.5 -51.16)"/><path class="c" d="M827.448,576.22s-10.112,89.321-3.371,96.062,33.706,25.279,33.706,25.279V677.338L844.3,652.059l13.482-58.985Z" transform="translate(-50.5 -51.16)"/><path class="c" d="M1001.877,573.692s-5.9,91.849-5.9,95.219-15.168,15.168-20.224,15.168-8.427-8.427-8.427-8.427l11.8-13.482-8.426-69.1Z" transform="translate(-50.5 -51.16)"/><path class="h" d="M985.866,702.618s75.838-42.132,77.524,0-38.762,58.985-38.762,58.985-104.488,31.332-108.7,19.879-12.64-29.991-5.9-31.676,15.168-5.056,18.538-1.685,45.5-25.279,45.5-25.279Z" transform="translate(-50.5 -51.16)"/><path class="i" d="M1021.258,697.562s-15.168,6.741-20.224,11.8-26.965,13.482-26.965,13.482" transform="translate(-50.5 -51.16)"/><path class="g" d="M856.1,535.773,845.987,532.4s-37.077,38.762-25.279,48.874,18.538,13.482,21.909,16.853,20.224,5.056,20.224,5.056Z" transform="translate(-50.5 -51.16)"/><path class="g" d="M979.125,544.2l15.168,3.371s11.8,25.279,15.168,28.65-5.056,1.685-10.112,8.426-10.112,18.538-20.224,18.538-23.594-16.853-23.594-16.853Z" transform="translate(-50.5 -51.16)"/><path class="h" d="M849.357,717.785s-64.041-45.5-85.95-11.8,94.377,79.209,111.23,85.95,32.021,13.482,32.021,13.482,15.168-37.077,15.168-43.818-11.8-6.741-15.168-6.741-18.538-3.371-21.909-8.426S849.357,717.785,849.357,717.785Z" transform="translate(-50.5 -51.16)"/><path class="i" d="M813.966,705.988s16.853,13.482,32.021,16.853,20.224,11.8,20.224,11.8" transform="translate(-50.5 -51.16)"/><path class="j" d="M837.732,642.622l1.346,71.356a8.933,8.933,0,0,0,9.032,8.764L980.9,721.25a8.933,8.933,0,0,0,8.818-8.418l4.031-69.864a8.933,8.933,0,0,0-8.918-9.447H846.663a8.933,8.933,0,0,0-8.931,9.1Z" transform="translate(-50.5 -51.16)"/><path class="b" d="M908.728,423.04s2.16,7.2-10.079,13.679-15.839,30.957-1.44,38.156,18.718,16.558,11.519,23.038-20.158,23.758-2.88,28.077,19.438,12.959,14.4,16.558,11.519-6.479,11.519-6.479,2.88,17.278,18,12.959,30.2-82.84,13.35-103.064C947.445,427.16,908.728,423.04,908.728,423.04Z" transform="translate(-50.5 -51.16)"/><path class="b" d="M904.13,415.629c0-10.547,31.559-2.969,45.088,11.758,9.369,10.2,23.6,25.54,11.674,36.355s20.439,24.992,29.119,29.29,25.817,17.443,10.343,26.261-15.224,17.72-9.4,19.827-12.839-3.134-12.839-3.134S980,553.4,964.276,553.319s-60.832-86.494-50.056-110.513C924.24,420.473,904.13,415.629,904.13,415.629Z" transform="translate(-50.5 -51.16)"/><path class="b" d="M910.965,413.318c-42.2-2.541-46.433,29.223-46.433,29.223.292,18.382,29.483,9.425,37.59,12.165,9.781-7.036,28.636-20.35,42.12-29.851A63.774,63.774,0,0,0,910.965,413.318Z" transform="translate(-50.5 -51.16)"/><path class="k" d="M898.942,616.008S861.09,438.609,624.169,309.92" transform="translate(-50.5 -51.16)"/><path class="l" d="M583.431,254.891l.474,1.945-9.583,2.324,3.019,9.389-1.906.611-3.675-11.436Z"/><path class="h" d="M261.273,791.45l6.382-4.741s4.224,23.6-.49,27.132-22.391,9.428-22.391,16.5-40.068,16.5-41.246,5.892,3.535-16.5,3.535-16.5,18.855-18.855,21.212-22.391,8.249-10.606,8.249-10.606Z" transform="translate(-50.5 -51.16)"/><path class="h" d="M167,498.014s.177,1.037.483,2.934c.283,1.685.672,4.066,1.143,7,4.95,30.2,19.386,119.119,18.408,122.053-1.178,3.535-9.428,16.5,0,20.034.907.342,1.886,1.449,2.934,3.194a68.5,68.5,0,0,1,4.985,11.761c5.621,16.31,11.632,42.413,15.108,60.49,1.52,7.943,2.557,14.33,2.864,17.677a9.612,9.612,0,0,1,.035,2.333c-1.178,4.714,7.071,21.212,10.606,25.926s9.428,9.428,8.249,14.142,29.462,17.677,33,9.428,3.535-12.963,4.714-15.32,2.357-18.855-3.535-21.212-2.357-43.6-8.249-51.852c-1.968-2.746-4.973-12.044-8.12-23.227-1.237-4.384-2.487-9.051-3.712-13.729-4.973-19.174-9.38-38.465-9.38-38.465L237.7,493.3l-64.815-8.249-1.662,3.665-3.312,7.271Z" transform="translate(-50.5 -51.16)"/><path class="h" d="M163.461,724.278s-9.428-9.428-14.142,0-9.428,45.96-17.677,54.209-18.855,49.5-7.071,51.852,24.748-3.535,25.926-10.606,25.926-43.6,25.926-47.138-16.5-16.5-16.5-16.5Z" transform="translate(-50.5 -51.16)"/><path class="h" d="M308.412,433.2s-15.32,137.88-18.855,150.843-22.391,62.458-28.283,70.708-43.6,75.422-48.317,78.957-14.142,12.963-14.142,12.963-17.677,17.677-20.034,21.212-22.391-7.071-23.569-14.142,1.178-18.855,2.357-23.569-2.357-11.785,1.178-15.32,21.212-21.212,21.212-29.462,30.64-56.566,42.425-67.172,9.428-28.283,9.428-28.283V518.047L167,498.014s3.535-56.566,11.785-56.566S295.449,422.592,308.412,433.2Z" transform="translate(-50.5 -51.16)"/><circle class="m" cx="38.889" cy="38.889" r="38.889" transform="translate(123.567 107.457)"/><path class="m" d="M225.919,228.146s4.714,17.677,10.606,22.391-15.32,24.748-15.32,24.748l-40.068,2.357-7.071-22.391s12.963-25.926,9.428-42.425S225.919,228.146,225.919,228.146Z" transform="translate(-50.5 -51.16)"/><path class="g" d="M242.418,248.18s-10.606,1.178-12.963,4.714-18.855,14.142-31.818,11.785-21.212-5.892-23.569-4.714S167,285.891,167,285.891L179.959,323.6l-2.357,103.7-3.535,28.283s-7.071-9.428,21.212-3.535,64.815-4.714,76.6-5.892,31.818-4.714,33-11.785-3.535-33-3.535-33l-18.855-78.957L270.7,280Z" transform="translate(-50.5 -51.16)"/><path class="n" d="M231.271,242.861s9.968-5.287,13.5-.573,48.317,11.785,48.317,15.32,9.428,98.991,7.071,107.24,4.714,17.677,4.714,17.677l8.249,35.354s22.391,67.172,12.963,69.529-17.677,0-21.212,0-2.357-44.782-11.785-56.566S270.7,389.6,268.344,383.7,236.526,296.5,237.7,287.069,231.271,242.861,231.271,242.861Z" transform="translate(-50.5 -51.16)"/><path class="n" d="M182.316,248.18s-9.428,0-10.606,2.357-12.963,17.677-17.677,21.212S132.821,290.6,132.821,294.14,167,323.6,167,323.6s14.142,69.529,7.071,93.1S156.39,496.835,161.1,500.37s15.32,4.714,15.32,0,7.071-55.388,12.963-65.994,23.569-77.778,16.5-96.634S182.316,248.18,182.316,248.18Z" transform="translate(-50.5 -51.16)"/><path class="m" d="M337.873,364.847s1.178,36.532-11.785,55.388S304.876,460.3,304.876,460.3s-21.212-5.892-24.748-12.963S254.2,446.161,254.2,443.8s27.1-14.142,29.462-16.5,10.606-2.357,15.32-7.071,5.892-15.32,5.892-15.32l4.714-30.64Z" transform="translate(-50.5 -51.16)"/><path class="b" d="M239.741,173.528c2.992-.272,6.077-.571,8.721-2,5.925-3.2,7.5-12.294,2.986-17.291a22.344,22.344,0,0,0-4.143-3.331l-8.958-6.1c-3.962-2.7-8.017-5.437-12.638-6.709-4.179-1.15-8.594-1.032-12.92-.763-8.4.522-16.849,1.6-24.749,4.5s-15.268,7.751-20.052,14.673c-7.585,10.974-7.689,25.775-3.511,38.444s12.112,23.7,19.931,34.51l4.057-19.795c.361-1.763.829-3.7,2.295-4.739,3.645-2.593,8.1,2.731,12.576,2.7,2.874-.022,5.287-2.386,6.376-5.046s1.161-5.605,1.413-8.468c.534-6.064,2.653-14.5,8.4-17.847C224.872,173.153,233.726,174.074,239.741,173.528Z" transform="translate(-50.5 -51.16)"/><path class="d" d="M237.56,498.965s-3.98,115.127-6.337,118.663,0-119.025,0-119.025Z" transform="translate(-50.5 -51.16)"/><path class="n" d="M283.664,257.607h9.428s40.068,54.209,35.354,57.745,0,12.963,0,12.963l9.428,17.677s11.785,10.606,8.249,12.963-8.249,11.785-8.249,11.785-23.569-3.535-30.64,10.606l-15.284-19.3Z" transform="translate(-50.5 -51.16)"/><rect class="h" width="35" height="65.224" transform="translate(204.144 237.242) rotate(-22.438)"/><ellipse class="g" cx="7" cy="6.431" rx="7" ry="6.431" transform="translate(221.324 250.025) rotate(-22.438)"/><path class="m" d="M260.095,351.884S175.246,422.592,161.1,400.2s15.32-41.246,15.32-41.246,25.926,1.178,55.388-17.677l29.462-12.963s26.9-38.4,36.061-23.777S281.69,344.608,260.095,351.884Z" transform="translate(-50.5 -51.16)"/><path class="n" d="M145.784,289.426l-12.963,4.714v35.354l-4.714,7.071s1.178,14.142,4.714,17.677,10.606,2.357,8.249,10.606a44.667,44.667,0,0,0-1.178,16.5s21.212,27.1,22.391,23.569,17.677-47.138,20.034-47.138-23.569-68.351-23.569-68.351Z" transform="translate(-50.5 -51.16)"/><path class="b" d="M300.752,467.963s12.185-11.785,6.092-12.374-27.3-12.374-30.84-6.482S300.752,467.963,300.752,467.963Z" transform="translate(-50.5 -51.16)"/><ellipse class="o" cx="17" cy="9" rx="17" ry="9" transform="translate(465 174)"/><path class="k" d="M597.5,264.16q-57.5-21.717-115,0v-47a199.038,199.038,0,0,1,115,0Z" transform="translate(-50.5 -51.16)"/><path class="k" d="M581.5,254.44q-41.5-15.674-83,0V220.519a143.654,143.654,0,0,1,83,0Z" transform="translate(-50.5 -51.16)"/><ellipse class="k" cx="17" cy="9" rx="17" ry="9" transform="translate(471 170)"/><ellipse class="o" cx="17" cy="9" rx="17" ry="9" transform="matrix(0.98, -0.2, 0.2, 0.98, 474.242, 234.129)"/><path class="k" d="M612.886,307.1q-60.681-9.779-112.677,23l-9.4-46.051a199.038,199.038,0,0,1,112.677-23Z" transform="translate(-50.5 -51.16)"/><path class="k" d="M595.266,300.777q-43.8-7.058-81.323,16.6l-6.784-33.237a143.653,143.653,0,0,1,81.323-16.6Z" transform="translate(-50.5 -51.16)"/><ellipse class="k" cx="17" cy="9" rx="17" ry="9" transform="matrix(0.98, -0.2, 0.2, 0.98, 479.321, 229.01)"/><ellipse class="o" cx="9" cy="17" rx="9" ry="17" transform="translate(471.592 303.282) rotate(-86.019)"/><path class="k" d="M602.435,381.085q-55.854-25.656-114.723-7.983l3.263-46.887A199.038,199.038,0,0,1,605.7,334.2Z" transform="translate(-50.5 -51.16)"/><path class="k" d="M587.149,370.278q-40.312-18.517-82.8-5.762l2.355-33.84a143.654,143.654,0,0,1,82.8,5.762Z" transform="translate(-50.5 -51.16)"/><ellipse class="k" cx="9" cy="17" rx="9" ry="17" transform="translate(477.856 299.709) rotate(-86.019)"/><path class="k" d="M465.422,265.251s-73.5-10.055-125.982,20.7" transform="translate(-50.5 -51.16)"/><path class="l" d="M290.708,224.459l1.909.6-2.984,9.4,9.594,2.289-.467,1.947-11.683-2.791Z"/></g></svg>