<svg xmlns="http://www.w3.org/2000/svg" width="616" height="616" viewBox="0 0 616 616">
  <defs>
    <style>
      .cls-1 {
        fill: none;
      }

      .cls-2 {
        fill: #feecd4;
      }

      .cls-3 {
        fill: #fff;
      }

      .cls-4, .cls-5, .cls-6 {
        stroke: none;
      }

      .cls-6 {
        fill: #030303;
      }
    </style>
  </defs>
  <g id="logo" transform="translate(-2169 754)">
    <rect id="Rectangle_32" data-name="Rectangle 32" class="cls-1" width="616" height="616" transform="translate(2169 -754)"/>
    <g id="Group_31" data-name="Group 31" transform="translate(-262.948 -830.912)">
      <g id="Path_45" data-name="Path 45" class="cls-2" transform="translate(2539.221 126.23)">
        <path class="cls-4" d="M 474.6693725585938 561.5911254882812 L 4.000036716461182 561.5911254882812 L 4.000036716461182 4.127897262573242 L 474.0290832519531 3.982977867126465 L 474.6693725585938 561.5911254882812 Z"/>
        <path class="cls-5" d="M 470.0336608886719 7.98419189453125 L 7.999969482421875 8.1265869140625 L 7.999969482421875 557.5911254882812 L 470.6646728515625 557.5911254882812 L 470.0336608886719 7.98419189453125 M 478.0245056152344 -0.01824951171875 L 478.6738891601562 565.5911254882812 L -3.0517578125e-05 565.5911254882812 L -3.0517578125e-05 0.1290283203125 L 478.0245056152344 -0.01824951171875 Z"/>
      </g>
      <g id="Path_43" data-name="Path 43" transform="translate(2461 85)">
        <path class="cls-4" d="M 76.43488311767578 600.7522583007812 L 5.847653388977051 559.179931640625 L 5.847653388977051 -0.2532213628292084 L 77.81121826171875 46.02004241943359 L 76.43488311767578 600.7522583007812 Z"/>
        <path class="cls-5" d="M 9.84765625 7.07427978515625 L 9.84765625 556.8935546875 L 72.45219421386719 593.7644653320312 L 73.8057861328125 48.199951171875 L 9.84765625 7.07427978515625 M 1.84765625 -7.5809326171875 L 81.816650390625 43.83990478515625 L 80.41757202148438 607.7400512695312 L 1.84765625 561.46630859375 L 1.84765625 -7.5809326171875 Z"/>
      </g>
      <path id="Path_46" data-name="Path 46" d="M68.694-75.756q-.749,10.165-.749,18.19,0,5.029.321,8.132H65.805Q63.237-62.595,58.8-67.945t-12.144-5.35H44.191v61.1a17.132,17.132,0,0,0,.91,6.527,4.86,4.86,0,0,0,3.21,2.729,29.944,29.944,0,0,0,7.329.8V0Q42.158-.321,35.31-.321q-6.741,0-19.581.321V-2.14a29.944,29.944,0,0,0,7.33-.8,4.86,4.86,0,0,0,3.21-2.729,17.132,17.132,0,0,0,.91-6.527v-61.1H24.824a16.1,16.1,0,0,0-8.72,2.247,17.731,17.731,0,0,0-6.153,7.436A59.349,59.349,0,0,0,5.564-49.434H3.1q.321-3.1.321-8.132,0-8.025-.749-18.19,9.737.321,33.063.321T68.694-75.756Zm26.429,28.89q4.815-9.951,17.441-9.951,8.346,0,11.77,4.173a12.133,12.133,0,0,1,2.622,5.3,37.32,37.32,0,0,1,.8,8.614V-9.951q0,4.387,1.5,6.046t5.35,1.658V0q-11.128-.428-14.124-.428-3.638,0-13.91.428V-2.247q3.21,0,4.494-1.658t1.284-6.046V-43.228q0-4.387-1.445-6.634t-5.189-2.247a9.638,9.638,0,0,0-7.544,3.477A12.9,12.9,0,0,0,95.123-39.8V-9.951q0,4.387,1.284,6.046T100.9-2.247V0Q90.629-.428,87.633-.428q-3.638,0-14.766.428V-2.247q3.745,0,5.3-1.658t1.551-6.046V-70.834q0-4.922-1.551-7.169t-5.3-2.247V-82.5q3.424.321,6.634.321a68.953,68.953,0,0,0,15.622-1.5Zm74.793,39.59q8.774,0,14.124-8.56l1.926.642a25.516,25.516,0,0,1-7.651,11.824A20.009,20.009,0,0,1,164.566,1.5q-11.342,0-18.029-7.223t-6.687-21.346q0-14.445,7.169-22.1t19.046-7.651q20.116,0,20.116,23.754H156.113q-.107,1.6-.107,5.029a30.491,30.491,0,0,0,1.98,11.77,14.981,14.981,0,0,0,5.136,6.848A11.879,11.879,0,0,0,169.916-7.276ZM165.422-54.57q-3.852,0-6.367,4.762T155.9-35.1h16.8A40.808,40.808,0,0,0,171.04-49.06Q169.167-54.57,165.422-54.57ZM41.73,103.2q13.91,1.07,20.437,6.42t6.527,12.626q0,9.951-7.811,15.354T39.162,143q-3.1,0-5.243-.107-7.062-.214-13.8-.214-11.021,0-16.478.321v-2.14A18.578,18.578,0,0,0,8.828,140a3.7,3.7,0,0,0,2.247-2.461,20.99,20.99,0,0,0,.589-5.885V78.586a20.991,20.991,0,0,0-.589-5.885A3.7,3.7,0,0,0,8.828,70.24a18.578,18.578,0,0,0-5.19-.856v-2.14q5.457.321,16.264.321l11.877-.107q2.14-.107,4.922-.107,12.84,0,19.634,4.6t6.794,12.2q0,6.206-5.4,11.556t-16,7.276ZM35.31,69.384a9.028,9.028,0,0,0-4.227.749,4.146,4.146,0,0,0-1.872,2.675,23.182,23.182,0,0,0-.535,5.778v24.182h4.6q6.955,0,9.737-4.762T45.8,85.327q0-8.025-2.514-11.984T35.31,69.384Zm.749,71.155q14.873,0,14.873-18.725,0-8.453-4.28-12.84T33.17,104.587H28.676v27.071a21.844,21.844,0,0,0,.535,5.671,3.743,3.743,0,0,0,2.086,2.515A12.28,12.28,0,0,0,36.059,140.539Zm66.019-54.356q12.3,0,19.26,7.008t6.955,22.2q0,15.194-6.955,22.149t-19.26,6.955q-12.2,0-19.207-6.955t-7.008-22.149q0-15.194,7.008-22.2T102.078,86.183Zm0,2.14q-4.6,0-7.33,6.688T92.02,115.394q0,13.7,2.729,20.33t7.33,6.634q4.708,0,7.383-6.581t2.675-20.383q0-13.8-2.729-20.437T102.078,88.323Zm60.455-2.14q12.305,0,19.26,7.008t6.955,22.2q0,15.194-6.955,22.149t-19.26,6.955q-12.2,0-19.206-6.955t-7.008-22.149q0-15.194,7.008-22.2T162.533,86.183Zm0,2.14q-4.6,0-7.329,6.688t-2.729,20.383q0,13.7,2.729,20.33t7.329,6.634q4.708,0,7.383-6.581t2.675-20.383q0-13.8-2.729-20.437T162.533,88.323Zm86.135,46.866a39.758,39.758,0,0,0,2.782,3.8,5.942,5.942,0,0,0,2.782,1.766V143q-8.56-.428-11.235-.428-3.531,0-13.8.428v-2.247a4.425,4.425,0,0,0,2.354-.535,1.677,1.677,0,0,0,.856-1.5,4.106,4.106,0,0,0-.535-1.6l-10.593-19.153a6.384,6.384,0,0,0-2.247-2.461,8.278,8.278,0,0,0-3-.856v18.4q0,4.387,1.391,6.046t5.029,1.659V143q-10.7-.428-13.91-.428-3.638,0-14.766.428v-2.247q3.745,0,5.3-1.659t1.551-6.046V72.059q0-4.922-1.551-7.169t-5.3-2.247V60.4q3.424.321,6.634.321a68.953,68.953,0,0,0,15.622-1.5v53.393a13.075,13.075,0,0,0,3.691-.856,7.624,7.624,0,0,0,2.729-1.926l8.132-7.918q3.531-3.531,3.531-6.527a4.44,4.44,0,0,0-2.247-3.906,12.293,12.293,0,0,0-5.992-1.659v-2.14Q231.762,88,238.4,88q8.881,0,12.519-.321v2.14Q244.6,91.212,237.54,98.06l-6.848,7.062ZM28.676,255.4v18.618a15.948,15.948,0,0,0,.909,6.26A4.719,4.719,0,0,0,32.8,282.9a32.538,32.538,0,0,0,7.33.749V286q-13.161-.321-19.581-.321-5.35,0-13.482.214L3.638,286v-2.14A18.577,18.577,0,0,0,8.828,283a3.7,3.7,0,0,0,2.247-2.461,20.991,20.991,0,0,0,.589-5.885V221.586a20.991,20.991,0,0,0-.589-5.885,3.7,3.7,0,0,0-2.247-2.461,18.577,18.577,0,0,0-5.19-.856v-2.14q5.457.321,16.264.321l11.877-.107q2.14-.107,4.922-.107,14.445,0,22.042,5.725a18.248,18.248,0,0,1,7.6,15.354,22.963,22.963,0,0,1-3,11.289q-3,5.4-10.111,9.042T34.347,255.4Zm6.634-43.014a9.028,9.028,0,0,0-4.227.749,4.146,4.146,0,0,0-1.872,2.675,23.182,23.182,0,0,0-.535,5.778v31.672h4.6q8.667,0,11.984-5.564t3.317-15.087q0-10.379-3.049-15.3T35.31,212.384Zm72.653,16.8q4.815,0,7.276,2.889a10.368,10.368,0,0,1,2.461,6.955,9.217,9.217,0,0,1-2.3,6.473,7.806,7.806,0,0,1-6.045,2.514,8.466,8.466,0,0,1-5.778-1.872,6.285,6.285,0,0,1-2.14-4.976,9.719,9.719,0,0,1,4.708-8.346,5.7,5.7,0,0,0-1.284-.107,5.567,5.567,0,0,0-1.712.214q-4.066.642-6.9,4.922a15.707,15.707,0,0,0-2.836,8.774v28.355q0,4.922,2.408,6.848t7.65,1.926V286a23.064,23.064,0,0,1-2.461-.107q-10.914-.321-14.552-.321-2.889,0-13.161.321a17.746,17.746,0,0,1-2.14.107v-2.247q3.852,0,5.35-1.658t1.5-6.046V242.344q0-4.922-1.5-7.169t-5.35-2.247v-2.247q3.424.321,6.634.321a67.236,67.236,0,0,0,15.622-1.5v9.951a18.142,18.142,0,0,1,5.885-7.437A14.26,14.26,0,0,1,107.963,229.183Zm39.269,0q12.305,0,19.26,7.008t6.955,22.2q0,15.194-6.955,22.149t-19.26,6.955q-12.2,0-19.206-6.955t-7.008-22.149q0-15.194,7.008-22.2T147.232,229.183Zm0,2.14q-4.6,0-7.329,6.688t-2.729,20.384q0,13.7,2.729,20.33t7.329,6.634q4.708,0,7.383-6.581t2.675-20.383q0-13.8-2.729-20.437T147.232,231.323Zm27.82,72.867a10.483,10.483,0,0,0,8.4-4.28q3.05-4.066,3.049-11.984V242.344q0-4.922-1.552-7.169t-5.3-2.247v-2.247q3.424.321,6.634.321a68.953,68.953,0,0,0,15.622-1.5v46.438a51.567,51.567,0,0,1-1.766,14.766,21.292,21.292,0,0,1-5.938,9.63q-6.313,5.778-19.153,5.778Zm17.976-101.115a10.743,10.743,0,0,1,7.115,2.193,8.282,8.282,0,0,1,0,12.091,12.638,12.638,0,0,1-14.231,0,8.282,8.282,0,0,1,0-12.091A10.743,10.743,0,0,1,193.028,203.075Zm50.29,75.649q8.774,0,14.124-8.56l1.926.642a25.516,25.516,0,0,1-7.651,11.823,20.009,20.009,0,0,1-13.749,4.868q-11.342,0-18.029-7.222t-6.687-21.346q0-14.445,7.169-22.1t19.046-7.65q20.116,0,20.116,23.754H229.515q-.107,1.6-.107,5.029a30.49,30.49,0,0,0,1.98,11.77,14.981,14.981,0,0,0,5.136,6.848A11.879,11.879,0,0,0,243.318,278.724Zm-4.494-47.294q-3.852,0-6.367,4.762T229.3,250.9h16.8a40.808,40.808,0,0,0-1.658-13.964Q242.569,231.43,238.824,231.43Zm54.784-2.247a31.7,31.7,0,0,1,7.49.856,19.483,19.483,0,0,1,5.885,2.354,12.6,12.6,0,0,1,4.333,4.333,11.037,11.037,0,0,1,1.552,5.725,8.434,8.434,0,0,1-2.354,6.152,8.154,8.154,0,0,1-6.1,2.408,8.328,8.328,0,0,1-5.992-2.14,7.6,7.6,0,0,1-2.247-5.778,8.238,8.238,0,0,1,2.033-5.564,10.217,10.217,0,0,1,5.029-3.21,5.725,5.725,0,0,0-2.621-1.872,10.27,10.27,0,0,0-3.8-.7q-6.42,0-10,7.008t-3.585,18.35q0,11.449,4.066,16.478a12.562,12.562,0,0,0,10.165,5.029,15.741,15.741,0,0,0,7.329-1.926,18.029,18.029,0,0,0,6.688-6.741l1.819.642a26.781,26.781,0,0,1-7.49,11.93q-5.35,4.975-13.8,4.975-11.021,0-17.976-7.276t-6.955-21.614a34.64,34.64,0,0,1,3.424-16.05,23.483,23.483,0,0,1,9.416-10A27.452,27.452,0,0,1,293.608,229.183Zm46.973,1.5h12.626v2.14H340.581v43.228q0,3.21,1.124,4.547a4.428,4.428,0,0,0,3.585,1.337q4.6,0,7.276-6.42l1.819.963Q350.318,287.5,339.725,287.5q-7.062,0-10.7-3.638a11.534,11.534,0,0,1-3.049-5.617,41.847,41.847,0,0,1-.8-9.255V232.821h-8.988v-2.14h8.988V216.557a32.734,32.734,0,0,0,15.408-3.424Z" transform="translate(2601.948 286.912)"/>
      <g id="Path_44" data-name="Path 44" class="cls-3" transform="translate(2474.065 72.899)">
        <path class="cls-4" d="M 533.6093139648438 52.37032318115234 L 66.6673583984375 52.37032318115234 L 1.836437702178955 8.520179748535156 L 486.1657104492188 8.520179748535156 L 533.6093139648438 52.37032318115234 Z"/>
        <path class="cls-6" d="M 14.889892578125 12.52017593383789 L 67.89309692382812 48.37032699584961 L 523.3883056640625 48.37032699584961 L 484.6002502441406 12.52017593383789 L 14.889892578125 12.52017593383789 M -11.217041015625 4.520175933837891 L 487.7311096191406 4.520175933837891 L 543.830322265625 56.37032699584961 L 65.441650390625 56.37032699584961 L -11.217041015625 4.520175933837891 Z"/>
      </g>
    </g>
  </g>
</svg>
