<svg xmlns="http://www.w3.org/2000/svg" xmlns:xlink="http://www.w3.org/1999/xlink" viewBox="0 0 355.68 229.69"><defs><style>.cls-1{fill:#f0047f;}.cls-2,.cls-3,.cls-4{stroke:#000;stroke-miterlimit:10;}.cls-2,.cls-3{stroke-width:3px;}.cls-2{fill:url(#linear-gradient);}.cls-3,.cls-4{fill:none;}.cls-4{stroke-width:5px;}.cls-5{fill:#fff;}</style><linearGradient id="linear-gradient" x1="305.51" y1="290.38" x2="305.77" y2="616.62" gradientUnits="userSpaceOnUse"><stop offset="0" stop-color="#f4136b"/><stop offset="1" stop-color="#4fa0ca"/></linearGradient></defs><title>TBP</title><g id="Layer_2" data-name="Layer 2"><path class="cls-1" d="M240.42,321.59l9.31-.2" transform="translate(-120.25 -316.15)"/><path class="cls-1" d="M240.42,324.09l9.31-.2a2.5,2.5,0,1,0,0-5l-9.31.2a2.5,2.5,0,0,0,0,5Z" transform="translate(-120.25 -316.15)"/><path class="cls-1" d="M130.28,319.65l9.94,2.37" transform="translate(-120.25 -316.15)"/><path class="cls-1" d="M129.61,322.06l9.95,2.37a2.5,2.5,0,1,0,1.33-4.82l-9.95-2.38a2.5,2.5,0,0,0-1.33,4.83Z" transform="translate(-120.25 -316.15)"/><path class="cls-1" d="M139,321.4l44.15-1" transform="translate(-120.25 -316.15)"/><path class="cls-1" d="M139,323.9l44.15-1c3.21-.07,3.22-5.07,0-5l-44.15,1c-3.21.07-3.22,5.07,0,5Z" transform="translate(-120.25 -316.15)"/><path class="cls-1" d="M171.46,321.82l29,.22" transform="translate(-120.25 -316.15)"/><path class="cls-1" d="M171.46,324.32l29,.22c3.22,0,3.22-5,0-5l-29-.22c-3.22,0-3.22,5,0,5Z" transform="translate(-120.25 -316.15)"/><path class="cls-1" d="M185.15,321.21a567.64,567.64,0,0,0,58.77-1.16,113.93,113.93,0,0,1-22.2,4.84" transform="translate(-120.25 -316.15)"/><path class="cls-1" d="M185.15,323.71a573.27,573.27,0,0,0,58.77-1.16l-.67-4.91a113.1,113.1,0,0,1-21.53,4.75,2.57,2.57,0,0,0-2.5,2.5,2.52,2.52,0,0,0,2.5,2.5,119,119,0,0,0,22.86-4.93c2.55-.83,2.28-5.12-.66-4.91a573.27,573.27,0,0,1-58.77,1.16c-3.22-.1-3.21,4.9,0,5Z" transform="translate(-120.25 -316.15)"/><path class="cls-1" d="M330.72,321.25a271.64,271.64,0,0,0,30.6.77l-14.06-1.29" transform="translate(-120.25 -316.15)"/><path class="cls-1" d="M330.72,323.75a274,274,0,0,0,30.6.77c3.26-.1,3.16-4.71,0-5l-14.06-1.29a2.5,2.5,0,0,0,0,5l14.06,1.29v-5a274,274,0,0,1-30.6-.77,2.51,2.51,0,0,0-2.5,2.5,2.55,2.55,0,0,0,2.5,2.5Z" transform="translate(-120.25 -316.15)"/><path class="cls-1" d="M364.05,321.32a5,5,0,0,0,3.43-.58l-6.59,0c12.43,1.55,25.16,3.08,37.37.28q-11.65-.58-23.33-.32" transform="translate(-120.25 -316.15)"/><path class="cls-1" d="M363.38,323.73a8.16,8.16,0,0,0,5.36-.83c2.23-1.17,1.16-4.67-1.26-4.66l-6.59,0a2.5,2.5,0,0,0,0,5c12.63,1.57,25.47,3,38,.19,2.86-.64,2.06-4.77-.66-4.91q-11.65-.58-23.33-.32c-3.21.07-3.22,5.07,0,5q11.67-.27,23.33.32l-.66-4.91c-12.08,2.72-24.58,1.14-36.71-.37v5l6.59,0-1.26-4.66a2.48,2.48,0,0,1-1.51.33,2.58,2.58,0,0,0-3.07,1.75,2.51,2.51,0,0,0,1.74,3.07Z" transform="translate(-120.25 -316.15)"/><path class="cls-1" d="M399.1,322.53a128.56,128.56,0,0,1,36.49.29" transform="translate(-120.25 -316.15)"/><path class="cls-1" d="M399.1,325a127.62,127.62,0,0,1,35.83.2,2.58,2.58,0,0,0,3.07-1.75,2.51,2.51,0,0,0-1.74-3.07A132.18,132.18,0,0,0,399.1,320a2.58,2.58,0,0,0-2.5,2.5,2.51,2.51,0,0,0,2.5,2.5Z" transform="translate(-120.25 -316.15)"/><path class="cls-1" d="M399.77,321.09" transform="translate(-120.25 -316.15)"/><path class="cls-1" d="M399.77,323.59c3.22,0,3.22-5,0-5s-3.22,5,0,5Z" transform="translate(-120.25 -316.15)"/><path class="cls-1" d="M400,321.09h1.42" transform="translate(-120.25 -316.15)"/><path class="cls-1" d="M400,323.59h1.42a1.88,1.88,0,0,0,1-.22,2.16,2.16,0,0,0,1.32-1.32,1.88,1.88,0,0,0,.22-1l-.09-.67a2.5,2.5,0,0,0-.64-1.1l-.51-.39a2.43,2.43,0,0,0-1.26-.34H400a1.83,1.83,0,0,0-1,.21,2,2,0,0,0-.81.52,1.92,1.92,0,0,0-.52.8,2,2,0,0,0-.21,1l.09.66a2.53,2.53,0,0,0,.64,1.11l.51.39a2.53,2.53,0,0,0,1.26.34Z" transform="translate(-120.25 -316.15)"/><path class="cls-1" d="M251.64,320l.44,5a6.58,6.58,0,0,0-.12-4.25l5.62,1.38-4.69-1.36a5.39,5.39,0,0,0,3.91,1.67h-2.46l1,0a7.61,7.61,0,0,0-3.14-.81l11.2.25" transform="translate(-120.25 -316.15)"/><path class="cls-1" d="M250.19,320.39l.44,5c0,.52,1.16.38,1.43.32.5-.1,1.3-.35,1.46-.91a7.1,7.1,0,0,0-.11-4.44l-2.35,1.14,5.62,1.38a2.61,2.61,0,0,0,1.92-.45c.28-.2.75-.79.14-1l-4.69-1.36a2.57,2.57,0,0,0-1.88.21c-.3.15-1,.61-.63,1a6.59,6.59,0,0,0,4.68,1.88l1.15-1.55h-2.45l-1.16,1.55,1,0a2.89,2.89,0,0,0,1.73-.57c.31-.27.44-.67,0-.88a9.45,9.45,0,0,0-3.73-.92l-1.15,1.56,11.2.24a2.4,2.4,0,0,0,1.92-.77c.37-.57-.32-.77-.77-.78l-11.2-.25a2.44,2.44,0,0,0-1.92.77c-.37.58.33.76.77.79a6.41,6.41,0,0,1,2.56.71l1.73-1.45-1,0a2.46,2.46,0,0,0-1.92.77c-.37.56.31.78.76.78h2.46a2.44,2.44,0,0,0,1.92-.77c.37-.56-.32-.78-.77-.78a4.54,4.54,0,0,1-3.13-1.44l-2.51,1.23,4.69,1.36,2.06-1.43L252.85,320a2.62,2.62,0,0,0-1.62.29c-.25.13-.86.47-.72.85a6.34,6.34,0,0,1,.12,4.06l2.9-.58-.44-5c-.08-.87-3-.27-2.9.77Z" transform="translate(-120.25 -316.15)"/><path class="cls-1" d="M258.08,321.34a18.91,18.91,0,0,1-5.36-.44,144.87,144.87,0,0,0,33.3-.29" transform="translate(-120.25 -316.15)"/><path class="cls-1" d="M258.08,318.84a17.66,17.66,0,0,1-4.7-.35l-.66,4.91a146.57,146.57,0,0,0,33.3-.29,2.57,2.57,0,0,0,2.5-2.5,2.52,2.52,0,0,0-2.5-2.5,146.57,146.57,0,0,1-33.3.29c-2.8-.3-3.4,4.31-.67,4.91a23.08,23.08,0,0,0,6,.53c3.2-.17,3.22-5.17,0-5Z" transform="translate(-120.25 -316.15)"/><path class="cls-1" d="M286.28,321.83l44.85-.79" transform="translate(-120.25 -316.15)"/><path class="cls-1" d="M286.28,324.33l44.85-.79c3.21-.05,3.22-5.05,0-5l-44.85.79c-3.21.05-3.22,5.05,0,5Z" transform="translate(-120.25 -316.15)"/><path class="cls-1" d="M294.94,320l-39.31.73" transform="translate(-120.25 -316.15)"/><path class="cls-1" d="M294.94,317.45l-39.31.73c-3.21.06-3.22,5.06,0,5l39.31-.73c3.21-.06,3.22-5.06,0-5Z" transform="translate(-120.25 -316.15)"/></g><g id="Layer_1" data-name="Layer 1"><path class="cls-2" d="M458.94,541.51l-300.35,2.8S185.84,514.73,174.33,433c-9.61-68.15-37.57-108.34-37.57-108.34H444.13s25.42,34.77,29.63,113.64C478.18,521,458.94,541.51,458.94,541.51Z" transform="translate(-120.25 -316.15)"/><line class="cls-3" x1="16.51" y1="8.53" x2="0.61" y2="1.52"/><line class="cls-3" x1="323.93" y1="8.91" x2="308.02" y2="1.9"/><line class="cls-3" x1="0.61" y1="1.52" x2="308.02" y2="1.9"/><path class="cls-4" d="M140.63,540.44c8.42-19.94,24.76-34.06,18.65-108.45-4.56-55.58-25.18-95.89-36.91-114.5" transform="translate(-120.25 -316.15)"/><path class="cls-4" d="M148.69,544.39c9.51-17.47,24.82-49.16,21.48-92.24-5.07-65.59-27.69-113.08-39.08-129.28" transform="translate(-120.25 -316.15)"/><path class="cls-5" d="M272.78,364.74l-4.84.34-.21-3,13.14-.93.21,3.05-4.83.34,1.35,19.25-3.47.24Z" transform="translate(-120.25 -316.15)"/><path class="cls-5" d="M298.3,361.84l3.48-.15.4,9,6-.26-.4-9,3.47-.15,1,22.34-3.48.15-.45-10.27-6,.26.45,10.28-3.47.15Z" transform="translate(-120.25 -316.15)"/><path class="cls-5" d="M341.73,373.3l-7.25.51L335,381l8.12-.57-.23,3-11.1.78-1.57-22.3,11-.78.21,3.05-7.6.54.42,6,7.26-.51Z" transform="translate(-120.25 -316.15)"/><path class="cls-5" d="M258,421.18l7.25-.35c4.15-.2,6.62,2,6.8,5.95.16,3.22-1.32,4.81-2.7,5.39,1.85.62,3.83,2.2,4,6,.22,4.68-2.62,7.5-7,7.71l-7.12.34Zm6.71,9.84c2.91-.14,3.72-1.37,3.61-3.71s-1.38-3.43-3.73-3.32l-2.62.13.33,7ZM262.91,443l2.91-.14c2.48-.12,3.81-1.55,3.67-4.52s-1.5-4.35-4.59-4.21l-2.41.12Z" transform="translate(-120.25 -316.15)"/><path class="cls-5" d="M307.65,433c.22,8.95-2,13.19-7.67,13.33-5.32.13-7.88-3.91-8.1-13-.21-8.87,2.57-12.76,7.65-12.88C304.9,420.33,307.45,424.36,307.65,433Zm-11.77.21c.15,6.36,1.33,9.89,4.12,9.82s3.81-3.44,3.65-10c-.15-6.33-1.27-9.33-4.12-9.26S295.74,427.19,295.88,433.2Z" transform="translate(-120.25 -316.15)"/><path class="cls-5" d="M342,432.94c.26,8.95-1.95,13.21-7.6,13.37-5.32.16-7.9-3.87-8.17-12.93-.26-8.87,2.5-12.78,7.59-12.93C339.19,420.3,341.76,424.31,342,432.94Zm-11.77.28c.19,6.35,1.38,9.88,4.17,9.8s3.79-3.47,3.6-10c-.18-6.33-1.32-9.32-4.18-9.23S330.07,427.21,330.24,433.22Z" transform="translate(-120.25 -316.15)"/><path class="cls-5" d="M361.31,421.1l3.84-.15.47,11.62c1.43-2.44,4.7-8.42,6.77-11.91l4.48-.18-6.31,10.18L378,445.52l-4.34.18L368,434l-2.23,3.36.34,8.63-3.84.15Z" transform="translate(-120.25 -316.15)"/><path class="cls-5" d="M219.28,485l6.36.73c3.61.42,6,2.92,5.5,7.18s-3.13,6.25-7.32,5.77l-2.57-.3-1.06,9.23-3.46-.39Zm2.29,10.58,2.19.25c2.36.27,3.61-.8,3.91-3.36.26-2.3-.78-3.73-2.83-4l-2.43-.28Z" transform="translate(-120.25 -316.15)"/><path class="cls-5" d="M253.57,497.83l-1,9.74-3.43-.37,2.4-22.23,6.46.7c3.93.42,5.88,2.77,5.46,6.62-.35,3.25-2.19,4.46-3.46,4.79,1.75,1,2.34,2.64,2,5.87l-.1.89a26.49,26.49,0,0,0-.2,4.71l-3.36-.36a19,19,0,0,1,.15-4.77l.08-.79c.33-3-.21-4.29-2.89-4.58Zm.31-2.83,2.2.24c2.5.27,3.6-.83,3.86-3.19.21-2-.61-3.37-2.79-3.6l-2.53-.28Z" transform="translate(-120.25 -316.15)"/><path class="cls-5" d="M295.83,497.19c-.73,7.95-3.15,11.48-8.17,11-4.73-.44-6.58-4.28-5.83-12.33.73-7.88,3.59-11,8.11-10.62C294.7,485.7,296.54,489.53,295.83,497.19Zm-10.45-1c-.52,5.64.16,8.89,2.63,9.12s3.74-2.66,4.27-8.47c.52-5.62-.16-8.39-2.7-8.62S285.88,490.83,285.38,496.17Z" transform="translate(-120.25 -316.15)"/><path class="cls-5" d="M319.83,502.36c-.21,3.47-1.09,5.94-5.34,5.68a11.37,11.37,0,0,1-2-.29l.17-2.91a10.47,10.47,0,0,0,1.42.19c1.83.11,2.17-.81,2.28-2.67l1-16.84,3.47.21Z" transform="translate(-120.25 -316.15)"/><path class="cls-5" d="M350,498.12l-7.25-.55-.54,7.18,8.11.61-.67,3-11.09-.84,1.69-22.29,11,.84-.23,3-7.6-.58-.46,6.05,7.25.55Z" transform="translate(-120.25 -316.15)"/><path class="cls-5" d="M381.64,502.16c-.22,1.17-1.25,6.68-7.16,6.08-6.19-.62-6.23-6.48-5.65-12.25.7-6.95,3.12-11.19,8.22-10.68,5.71.58,5.61,5.67,5.52,7.31l-3.43-.34c0-.76.23-3.73-2.45-4-2.84-.29-3.8,3.3-4.28,8.13-.44,4.37-.42,8.63,2.43,8.92,2.58.26,3.15-2.58,3.34-3.52Z" transform="translate(-120.25 -316.15)"/><path class="cls-5" d="M405.45,488.45l-4.81-.55.34-3,13.09,1.48-.34,3-4.82-.54L406.74,508l-3.46-.39Z" transform="translate(-120.25 -316.15)"/></g></svg>