<svg xmlns="http://www.w3.org/2000/svg" width="1115.914" height="832.564" viewBox="0 0 1115.914 832.564"><defs><style>.a{fill:none;}.a,.i{stroke:#3f3d56;stroke-miterlimit:10;stroke-width:2px;}.b{fill:#3f4545;}.c{fill:#dbdbdb;}.d{fill:#838e8e;}.e{fill:#fff;}.f,.i{fill:#3f3d56;}.g{fill:#8a2be2;}.h{fill:#d94747;}</style></defs><line class="a" x2="144" transform="translate(389.957 255.282)"/><ellipse class="b" cx="39.5" cy="12.4" rx="39.5" ry="12.4" transform="matrix(0.357, -0.934, 0.934, 0.357, 181.137, 442.251)"/><path class="c" d="M1153.378,543.014c15.666,116.589-5.666,233.3-114.169,278.753S805.9,816.1,760.456,707.6,822.24,534.175,874.624,428.845C981,214.952,1104.728,180.95,1153.378,543.014Z" transform="translate(-42.043 -33.718)"/><ellipse class="d" cx="170" cy="23.127" rx="170" ry="23.127" transform="translate(746 771.309)"/><rect class="b" width="24" height="43" transform="translate(811.177 758.708) rotate(-105.453)"/><ellipse class="b" cx="7.5" cy="20" rx="7.5" ry="20" transform="translate(789.76 726.238) rotate(-15.453)"/><ellipse class="b" cx="39.5" cy="12.4" rx="39.5" ry="12.4" transform="translate(905.723 691.824) rotate(-82.281)"/><circle class="b" cx="79" cy="79" r="79" transform="translate(836.585 649.299)"/><rect class="b" width="24" height="43" transform="translate(811.177 744.708) rotate(-105.453)"/><ellipse class="b" cx="7.5" cy="20" rx="7.5" ry="20" transform="translate(789.76 712.238) rotate(-15.453)"/><circle class="e" cx="27" cy="27" r="27" transform="translate(909.329 656.043)"/><circle class="f" cx="9" cy="9" r="9" transform="translate(935.963 662.116)"/><path class="g" d="M1048.858,816.306c29.234-1.463,51.625-28.808,50.01-61.076s-26.623-57.241-55.858-55.778-33.822,24.412-32.207,56.681S1019.623,817.769,1048.858,816.306Z" transform="translate(-42.043 -33.718)"/><path class="e" d="M925.341,728.592a18,18,0,1,1-2.9-35.883c9.909-.8,12.611,7.064,13.413,16.973S935.25,727.79,925.341,728.592Z" transform="translate(-42.043 -33.718)"/><path class="a" d="M49.464,361.025H491.957l68.6,33.422L669.866,447.7l71.468-133.812h202.24"/><circle class="g" cx="13.685" cy="13.685" r="13.685" transform="translate(209.126 361.34)"/><circle class="g" cx="13.685" cy="13.685" r="13.685" transform="translate(336.856 347.34)"/><circle class="g" cx="13.685" cy="13.685" r="13.685" transform="translate(546.698 380.793)"/><circle class="g" cx="13.685" cy="13.685" r="13.685" transform="translate(841.694 300.202)"/><circle class="g" cx="13.685" cy="13.685" r="13.685" transform="translate(698.758 353.422)"/><circle class="a" cx="14.756" cy="14.756" r="14.756" transform="translate(412.82 566.685)"/><ellipse class="d" cx="170" cy="23.127" rx="170" ry="23.127" transform="translate(0 786.309)"/><circle class="b" cx="79" cy="79" r="79" transform="translate(81.805 617.436)"/><rect class="b" width="24" height="43" transform="translate(124.805 758.436)"/><rect class="b" width="24" height="43" transform="translate(172.805 758.436)"/><ellipse class="b" cx="20" cy="7.5" rx="20" ry="7.5" transform="translate(124.805 794.436)"/><ellipse class="b" cx="20" cy="7.5" rx="20" ry="7.5" transform="translate(172.805 793.436)"/><circle class="e" cx="27" cy="27" r="27" transform="translate(135.805 649.436)"/><circle class="f" cx="9" cy="9" r="9" transform="translate(153.805 667.436)"/><path class="g" d="M126.215,656.687c-6.379-28.568,14.012-57.434,45.544-64.475s62.265,10.41,68.644,38.978-14.519,39.1-46.051,46.145S132.594,685.254,126.215,656.687Z" transform="translate(-42.043 -33.718)"/><circle class="b" cx="79" cy="79" r="79" transform="translate(54.805 390.436)"/><rect class="b" width="24" height="43" transform="translate(97.805 531.436)"/><rect class="b" width="24" height="43" transform="translate(145.805 531.436)"/><ellipse class="b" cx="20" cy="7.5" rx="20" ry="7.5" transform="translate(97.805 567.436)"/><ellipse class="b" cx="20" cy="7.5" rx="20" ry="7.5" transform="translate(145.805 566.436)"/><circle class="e" cx="27" cy="27" r="27" transform="translate(108.805 422.436)"/><circle class="f" cx="9" cy="9" r="9" transform="translate(126.805 440.436)"/><path class="g" d="M99.215,429.687c-6.379-28.568,14.012-57.434,45.544-64.475s62.265,10.41,68.644,38.978-14.519,39.1-46.051,46.145S105.594,458.254,99.215,429.687Z" transform="translate(-42.043 -33.718)"/><ellipse class="b" cx="12.4" cy="39.5" rx="12.4" ry="39.5" transform="translate(3.822 427.057) rotate(-64.626)"/><path class="e" d="M137.043,531.655c0,7.732,19.909,23,42,23s42.8-21.768,42.8-29.5-20.713,1.5-42.8,1.5S137.043,523.923,137.043,531.655Z" transform="translate(-42.043 -33.718)"/><rect class="g" width="126.129" height="64.161" transform="translate(835.474 564.71)"/><rect class="a" width="126.129" height="64.161" transform="translate(825.603 575.129)"/><rect class="h" width="36" height="36" transform="translate(226.603 199)"/><rect class="a" width="36" height="36" transform="translate(217.603 187)"/><circle class="b" cx="79" cy="79" r="79" transform="translate(827.052 110.47)"/><rect class="b" width="24" height="43" transform="translate(960.178 286.374) rotate(169.739)"/><rect class="b" width="24" height="43" transform="translate(912.946 294.924) rotate(169.739)"/><ellipse class="b" cx="20" cy="7.5" rx="20" ry="7.5" transform="matrix(0.763, -0.646, 0.646, 0.763, 876.914, 309.589)"/><ellipse class="b" cx="20" cy="7.5" rx="20" ry="7.5" transform="matrix(0.763, -0.646, 0.646, 0.763, 923.162, 301.216)"/><circle class="e" cx="27" cy="27" r="27" transform="translate(873.521 143.146)"/><circle class="f" cx="9" cy="9" r="9" transform="translate(880.424 151.468)"/><path class="g" d="M1010.415,137.245C1011.6,108,986.4,83.225,954.115,81.914s-59.415,21.335-60.6,50.582,21.252,35.892,53.534,37.2S1009.227,166.492,1010.415,137.245Z" transform="translate(-42.043 -33.718)"/><ellipse class="b" cx="12.4" cy="39.5" rx="12.4" ry="39.5" transform="matrix(0.223, -0.975, 0.975, 0.223, 791.833, 178.34)"/><ellipse class="b" cx="12.4" cy="39.5" rx="12.4" ry="39.5" transform="matrix(0.223, -0.975, 0.975, 0.223, 946.906, 204.129)"/><path class="e" d="M969.793,254.321a18,18,0,0,1-35.424,6.413c-1.771-9.782,5.792-13.244,15.575-15.014S968.022,244.539,969.793,254.321Z" transform="translate(-42.043 -33.718)"/><line class="a" x2="91" y2="70" transform="translate(712.603 99)"/><circle class="h" cx="68" cy="68" r="68" transform="translate(601.603)"/><ellipse class="b" cx="39.5" cy="12.4" rx="39.5" ry="12.4" transform="translate(876.071 710.596) rotate(-82.281)"/><circle class="g" cx="13.685" cy="13.685" r="13.685" transform="translate(55.126 772.34)"/><rect class="h" width="36" height="36" transform="translate(256.603 770)"/><circle class="g" cx="13.685" cy="13.685" r="13.685" transform="translate(243.126 780.34)"/><circle class="g" cx="13.685" cy="13.685" r="13.685" transform="translate(448.272 241.34)"/><circle class="h" cx="6.535" cy="6.535" r="6.535" transform="translate(721.185 672.717)"/><line class="i" y1="74.411" transform="translate(759.739 713.313)"/><circle class="f" cx="10.523" cy="10.523" r="10.523" transform="translate(749.216 702.79)"/><path class="f" d="M801.782,792.893s-1.5-32.332-32.32-28.574" transform="translate(-42.043 -33.718)"/></svg>