<svg xmlns="http://www.w3.org/2000/svg" width="981.819" height="669.056" viewBox="0 0 981.819 669.056"><defs><style>.a{fill:#3f4545;}.b{fill:#fff;}.c{fill:#3f3d56;}.d{fill:#8a2be2;}.e{fill:#ffb9b9;}.f{fill:#f2f2f2;}</style></defs><rect class="a" width="21.846" height="28.4" transform="translate(83.401 188.773)"/><rect class="a" width="21.846" height="28.4" transform="translate(567.401 586.773)"/><rect class="a" width="21.846" height="28.4" transform="translate(920.155 294.512) rotate(90)"/><circle class="a" cx="86.292" cy="86.292" r="86.292" transform="translate(760.739 439.054)"/><path class="a" d="M880.36,643.515l25.8-4.67-8.367-53.864-25.8,4.67Z"/><rect class="a" width="26.215" height="46.969" transform="translate(854.563 640.533) rotate(169.739)"/><ellipse class="a" cx="21.846" cy="8.192" rx="21.846" ry="8.192" transform="matrix(0.763, -0.646, 0.646, 0.763, 815.203, 656.553)"/><ellipse class="a" cx="21.846" cy="8.192" rx="21.846" ry="8.192" transform="matrix(0.763, -0.646, 0.646, 0.763, 865.72, 655.054)"/><circle class="b" cx="29.492" cy="29.492" r="29.492" transform="translate(811.498 474.746)"/><circle class="c" cx="9.831" cy="9.831" r="9.831" transform="translate(819.038 483.836)"/><path class="d" d="M1011.339,548.928c1.3-31.947-26.236-59.006-61.5-60.438s-64.9,23.3-66.2,55.251,23.214,39.205,58.476,40.638S1010.041,580.875,1011.339,548.928Z" transform="translate(-96.235 -117.459)"/><ellipse class="a" cx="13.545" cy="43.146" rx="13.545" ry="43.146" transform="matrix(0.223, -0.975, 0.975, 0.223, 722.268, 513.188)"/><ellipse class="a" cx="13.545" cy="43.146" rx="13.545" ry="43.146" transform="matrix(0.223, -0.975, 0.975, 0.223, 891.656, 541.357)"/><path class="b" d="M966.967,676.812a19.662,19.662,0,1,1-38.694,7c-1.934-10.685,6.327-14.466,17.012-16.4S965.033,666.127,966.967,676.812Z" transform="translate(-96.235 -117.459)"/><path class="e" d="M398.526,582.508l-3,39,29,3-7-47Z"/><path class="a" d="M393.723,344.814h0c24.719,7.617,37.9,36.031,29.451,63.464l-10.74,34.854-10.719-3.3L399.488,425l-2.428,13.392-68.9-21.232-2.024-13.478-2.207,12.174-7.757-2.391L324.6,386.1C334.332,354.533,365.277,336.048,393.723,344.814Z" transform="translate(-96.235 -117.459)"/><path class="e" d="M355.331,449.425a16.232,16.232,0,0,0-18.852,14.93c-.431,6.043,1.655,13.117,11.022,18.356,20.008,11.19,63.4,35.585,63.4,35.585l82.784,15.9s41.833,33.381,47.075,14.395-39.695-30.578-39.695-30.578l-76.054-19.5-48.461-35.052S367.665,451.6,355.331,449.425Z" transform="translate(-96.235 -117.459)"/><path class="e" d="M232.636,409.747l8.32,23.449,49.925-12.1-12.86-17.4Z"/><path class="e" d="M99.125,630.247,61.3,626.464l26.475-25.718L106.69,613.6Z"/><circle class="e" cx="31.063" cy="31.063" r="31.063" transform="translate(257.681 243.707)"/><path class="e" d="M360.641,397.1s-17.4,20.424-26.475,23.449-31.77,31.77-20.424,50.681,52.95-4.539,52.95-4.539L365.18,447.78s17.4-30.257,21.18-32.527S360.641,397.1,360.641,397.1Z" transform="translate(-96.235 -117.459)"/><path class="d" d="M357.617,433.621c-11.566-17.413-38.393-14.3-45.047,5.519q-.178.529-.34,1.076c-6.051,20.424,3.026,55.22,3.026,55.22l13.616,40.847s35.552-16.642,61.271,11.346l-3.782-28.744s10.59-24.206-3.026-41.6C374.669,466.209,366.616,447.171,357.617,433.621Z" transform="translate(-96.235 -117.459)"/><path class="a" d="M178.719,742.411l-1.513,11.346s-49.925-9.834-60.515-.756-10.59,15.129-18.911,9.077c-3.536-2.572-.514-8.833,4.13-15.182a76.425,76.425,0,0,1,28.166-23.387c12.484-6.112,29.731-14.993,29.731-17.407,0-3.782,13.616-15.129,18.911-9.077s15.129,22.693,15.129,22.693Z" transform="translate(-96.235 -117.459)"/><path class="a" d="M490.092,720.968S479,760.278,483.036,762.294s12.1,8.064,24.191,8.064c7.147,0,17.814,3.871,25.345,7.039a61.094,61.094,0,0,0,27.847,4.79c6.349-.437,11.747-1.926,11.318-5.781-1.008-9.072-20.159-11.088-20.159-11.088l-20.159-26.207s-3.528-16.632-6.552-16.632a6.622,6.622,0,0,1-4.536-1.512Z" transform="translate(-96.235 -117.459)"/><path class="a" d="M376.782,354.576a24.563,24.563,0,0,1,21.434-3.744l.879.271c16.943,5.221,25.953,24.785,20.125,43.7h0l-5.677-1.749,1.234-7.261-3.495,6.564-33.67-10.376-1-6.773-1.114,6.121-6.624-2.041q-11.732,21.6-.868,50.157l-11.284-3.477-2-13.546L352.49,424.66l-21.509-6.628,4.138-28.462C341.386,369.23,358.518,355.625,376.782,354.576Z" transform="translate(-96.235 -117.459)"/><rect class="f" width="257" height="481" transform="translate(419.608 53)"/><path class="c" d="M834.844,652.459h-320v-535h320Zm-318-2h316v-531h-316Z" transform="translate(-96.235 -117.459)"/><path class="c" d="M795.844,398.459h-242v-222h242Zm-240-2h238v-218h-238Z" transform="translate(-96.235 -117.459)"/><path class="c" d="M459.315,222.139l-1.414-1.414L533.324,145.3l44.284,44.284L697.4,69.793l1.414,1.414L577.608,192.414,533.324,148.13Z"/><circle class="d" cx="15" cy="15" r="15" transform="translate(518.608 132)"/><circle class="d" cx="15" cy="15" r="15" transform="translate(563.608 173)"/><circle class="d" cx="15" cy="15" r="15" transform="translate(683.608 55)"/><rect class="a" width="182" height="18" transform="translate(487.608 343)"/><path class="c" d="M620.608,491h-84V407h57v2h-55v80h80V449h2Z"/><path class="d" d="M578.175,469.09,560.408,445.4l6.4-4.8,12.233,16.31,56.239-56.238,5.656,5.656Z"/><path class="a" d="M390.52,549.52s-18.154-24.206-55.22-9.834L328.493,558.6s-39.334,31.014-17.4,78.669l-1.513,71.1-6.051,20.424-109.683-9.077-3.782,34.8,19.667,1.513s111.2,43.873,128.593,16.642,53.707-134.645,53.707-134.645l94.182,14.1s-2.756,29.475.269,33.257S488,705.05,489.51,708.076s.252,10.891.252,10.891l31.249-1.032V702.807s3.782-20.424,3.782-25.719,22.693-74.887-16.642-80.938S401.11,579.021,401.11,579.021Z" transform="translate(-96.235 -117.459)"/><path class="e" d="M355.179,431.285a18.753,18.753,0,0,0-25.979-9.852c-6.249,3.153-12.029,9.413-11.675,21.809.756,26.475,2.269,83.964,2.269,83.964l33.283,91.528s-8.321,61.271,13.616,55.22,6.808-57.489,6.808-57.489l-25.719-86.99,6.051-68.835S360.328,444.808,355.179,431.285Z" transform="translate(-96.235 -117.459)"/></svg>